Coordinates
version=1
nRows=26
nColumns=22
inDegrees=yes

Units are S.I. units (second, meters, Newtons, ...)
If the header above contains a line with 'inDegrees', this indicates whether rotational values are in degrees (yes) or radians (no).

endheader
time	pelvis_tilt	pelvis_list	pelvis_rotation	pelvis_tx	pelvis_ty	pelvis_tz	hip_flexion_r	hip_adduction_r	hip_rotation_r	knee_angle_r	ankle_angle_r	subtalar_angle_r	hip_flexion_l	hip_adduction_l	hip_rotation_l	knee_angle_l	ankle_angle_l	subtalar_angle_l	lumbar_extension	lumbar_bending	lumbar_rotation
      3.42000000	     -2.77230221	      5.52148239	     26.35060266	     -0.32200615	      0.92617929	     -0.57802970	     30.29381190	     -2.15200608	     -9.89651827	    -38.98098882	      3.06151609	     -0.48412679	     -2.88018851	      2.04102101	     -4.41122537	    -16.73447447	     13.87946782	      0.55348689	    -11.98909963	     -8.16071071	    -15.16480939
      3.43000000	     -2.80079131	      5.33555051	     26.16730159	     -0.31492288	      0.92447321	     -0.58077763	     30.32167148	     -2.07025301	    -10.21693768	    -35.29742656	      2.75094164	     -0.63092550	     -3.36720303	      1.88728926	     -4.77709570	    -16.64655141	     14.53246765	      0.50462042	    -11.94542647	     -7.88630622	    -15.54659844
      3.44000000	     -2.84211142	      5.16837334	     26.00906386	     -0.30774869	      0.92256944	     -0.58345213	     30.26678760	     -1.99932520	    -10.48894575	    -31.53353031	      2.33470882	     -0.76421388	     -3.83066512	      1.74545610	     -5.13586478	    -16.60625818	     15.22335434	      0.47999090	    -11.89988727	     -7.63606040	    -15.91816839
      3.45000000	     -2.87730676	      5.03420852	     25.86317049	     -0.30038809	      0.92052673	     -0.58609617	     30.11787037	     -1.94761602	    -10.73491017	    -27.75062245	      1.89317661	     -0.90006563	     -4.35579352	      1.62706593	     -5.46374549	    -16.51106024	     15.89514440	      0.46687412	    -11.86200155	     -7.41544368	    -16.25415948
      3.46000000	     -2.93912406	      4.94706182	     25.74453286	     -0.29291734	      0.91829980	     -0.58870647	     29.94246248	     -1.94877684	    -10.93645080	    -24.04115103	      1.42991619	     -1.00413517	     -4.87057197	      1.55049583	     -5.79023633	    -16.44244213	     16.57437435	      0.46951151	    -11.81713676	     -7.25415437	    -16.59029785
      3.47000000	     -3.02000612	      4.91637139	     25.63695384	     -0.28526886	      0.91593807	     -0.59132849	     29.75384497	     -2.01428898	    -11.11688007	    -20.49111313	      1.03226057	     -1.08542125	     -5.43742475	      1.53181958	     -6.08321637	    -16.31176473	     17.20444804	      0.48371956	    -11.76305616	     -7.15398522	    -16.90795638
      3.48000000	     -3.12047711	      4.94041544	     25.54303172	     -0.27744207	      0.91346558	     -0.59395902	     29.58570130	     -2.14985180	    -11.29239437	    -17.19635561	      0.73461314	     -1.14182596	     -6.05346369	      1.56658603	     -6.33669319	    -16.12168962	     17.77577527	      0.51287536	    -11.69742604	     -7.11431099	    -17.21282967
      3.49000000	     -3.27546490	      4.99267531	     25.46229103	     -0.26946105	      0.91083952	     -0.59657617	     29.51774404	     -2.35365035	    -11.49985806	    -14.25137481	      0.49642430	     -1.17467107	     -6.64388630	      1.64051731	     -6.55359512	    -15.92165765	     18.30750318	      0.55108366	    -11.57166303	     -7.12791515	    -17.50857380
      3.50000000	     -3.39210665	      5.09460748	     25.39273657	     -0.26127502	      0.90825970	     -0.59919283	     29.43995576	     -2.60952672	    -11.77288200	    -11.69742595	      0.47947804	     -1.19249912	     -7.31651519	      1.73229828	     -6.70375813	    -15.70125636	     18.73538061	      0.60785802	    -11.49552385	     -7.16781435	    -17.78758779
      3.51000000	     -3.55698266	      5.18672070	     25.34287485	     -0.25292900	      0.90559576	     -0.60179464	     29.49867947	     -2.90854560	    -12.16494237	     -9.63167986	      0.51875646	     -1.21875755	     -7.92414687	      1.82094754	     -6.78620860	    -15.51909002	     19.12690270	      0.66563882	    -11.34608520	     -7.21511156	    -18.07591432
      3.52000000	     -3.69149083	      5.27110168	     25.30317621	     -0.24435172	      0.90300764	     -0.60437697	     29.60643885	     -3.21943538	    -12.71884308	     -8.09212726	      0.73534299	     -1.28283766	     -8.54415374	      1.86989973	     -6.80139190	    -15.38290758	     19.43139449	      0.72824036	    -11.20543799	     -7.23233622	    -18.35199820
      3.53000000	     -3.81756592	      5.32154300	     25.27017298	     -0.23552593	      0.90048300	     -0.60694158	     29.80192548	     -3.53043982	    -13.44684681	     -7.12560349	      1.06816334	     -1.40330321	     -9.12399468	      1.86582112	     -6.74938143	    -15.33119944	     19.67282207	      0.78656172	    -11.03147191	     -7.20385789	    -18.59737292
      3.54000000	     -3.88155121	      5.33696400	     25.24140216	     -0.22642739	      0.89814845	     -0.60949316	     30.03472916	     -3.82879961	    -14.42744606	     -6.76405093	      1.46479783	     -1.66206234	     -9.71774396	      1.78256849	     -6.65784100	    -15.35676899	     19.83002082	      0.84567029	    -10.88729672	     -7.09612356	    -18.84233134
      3.55000000	     -3.87586002	      5.30406521	     25.21472592	     -0.21697497	      0.89603714	     -0.61205013	     30.27541361	     -4.09963243	    -15.61666735	     -6.97466986	      1.86807996	     -2.31087485	    -10.34593226	      1.61006806	     -6.49587146	    -15.43354879	     19.92005920	      0.93491600	    -10.75752065	     -6.89217610	    -19.10259303
      3.56000000	     -3.82628652	      5.23559435	     25.18208538	     -0.20719631	      0.89412000	     -0.61462253	     30.56545883	     -4.38277442	    -17.02682052	     -7.78317605	      2.29907498	     -3.01115089	    -10.95868932	      1.37391143	     -6.30633515	    -15.61787016	     19.92042025	      1.01551029	    -10.62898942	     -6.61543381	    -19.32024436
      3.57000000	     -3.71187004	      5.13147664	     25.12894566	     -0.19699812	      0.89245088	     -0.61720193	     30.83254542	     -4.65784024	    -18.60857862	     -9.06113481	      2.65940560	     -3.88665464	    -11.61171311	      1.06886222	     -6.11204097	    -15.85116851	     19.82093489	      1.10843863	    -10.50887122	     -6.25925545	    -19.51881687
      3.58000000	     -3.53061618	      4.98438381	     25.04096469	     -0.18637496	      0.89104367	     -0.61975079	     31.05003836	     -4.90552343	    -20.30405681	    -10.69591366	      2.88579873	     -4.89541686	    -12.29798648	      0.69232058	     -5.91509693	    -16.14672253	     19.59010912	      1.21809569	    -10.39906535	     -5.81930484	    -19.65385735
      3.59000000	     -3.29717138	      4.78738041	     24.89169564	     -0.17528771	      0.88989263	     -0.62218253	     31.19420956	     -5.08639412	    -22.01261718	    -12.52366725	      2.93956222	     -6.02349561	    -13.00432596	      0.24215053	     -5.79867544	    -16.49844671	     19.18791289	      1.35181006	    -10.27599806	     -5.30634901	    -19.72606801
      3.60000000	     -3.04417105	      4.52232998	     24.69164407	     -0.16379499	      0.88898172	     -0.62446269	     31.27937189	     -5.17635314	    -23.68081911	    -14.40636265	      2.77537870	     -7.11539088	    -13.68894789	     -0.27639169	     -5.68254072	    -16.90084475	     18.66908858	      1.49546096	    -10.10561987	     -4.71979888	    -19.74046623
      3.61000000	     -2.79877021	      4.17569621	     24.40869335	     -0.15192652	      0.88829068	     -0.62645943	     31.32660525	     -5.11577707	    -25.17189418	    -16.21983008	      2.43115129	     -8.17480283	    -14.29477859	     -0.86422196	     -5.63603751	    -17.39601613	     17.97214013	      1.64255278	     -9.86238063	     -4.07395051	    -19.65641047
      3.62000000	     -2.59012160	      3.74448269	     24.03060571	     -0.13975239	      0.88779846	     -0.62809165	     31.36456745	     -4.86387761	    -26.33865440	    -17.87709730	      1.95783929	     -9.17889782	    -14.77007001	     -1.50828608	     -5.67028162	    -18.01920078	     17.09119416	      1.79272752	     -9.52753699	     -3.37875873	    -19.49313024
      3.63000000	     -2.45219665	      3.23657088	     23.53937774	     -0.12731572	      0.88747104	     -0.62927654	     31.44025813	     -4.40214359	    -27.08805797	    -19.35468218	      1.41495671	    -10.05467543	    -15.07154279	     -2.18323562	     -5.79963018	    -18.79098957	     16.01853769	      1.93203777	     -9.08043226	     -2.67001329	    -19.23232431
      3.64000000	     -2.39558520	      2.66873912	     22.92610068	     -0.11466754	      0.88729559	     -0.62998172	     31.57163607	     -3.72925569	    -27.36860899	    -20.65529295	      0.85756273	    -10.75541793	    -15.18178076	     -2.86787309	     -6.02780047	    -19.73535473	     14.76245004	      2.03608304	     -8.52722080	     -1.96604601	    -18.87973955
      3.65000000	     -2.38967925	      2.08983120	     22.21128526	     -0.10190094	      0.88735877	     -0.63022826	     31.69733586	     -2.88094772	    -27.20130775	    -21.76093250	      0.36442904	    -11.28081636	    -15.11111880	     -3.53346318	     -6.29487182	    -20.90962529	     13.25691504	      2.07856792	     -7.94480129	     -1.29455113	    -18.45888815
      3.66000000	     -2.43046155	      1.51520983	     21.41402596	     -0.08899983	      0.88762478	     -0.63009012	     31.81871727	     -1.91416299	    -26.74622022	    -22.73939028	      0.03399851	    -11.80401380	    -14.87642858	     -4.17716170	     -6.60350737	    -22.29326017	     11.53625572	      2.15974909	     -7.33464628	     -0.66397206	    -18.00896655
      3.67000000	     -2.52535197	      1.00103879	     20.58914627	     -0.07609512	      0.88809772	     -0.62967920	     31.91512770	     -0.93415749	    -26.09784576	    -23.60905875	     -0.04284388	    -12.39614408	    -14.44243249	     -4.75307797	     -6.84435859	    -23.93254114	      9.54786225	      2.37086631	     -6.72494842	     -0.12069091	    -17.61014680
